<svg xmlns="http://www.w3.org/2000/svg" height="512pt" version="1.1" viewBox="0 -3 512 512" width="512pt">
<g id="surface1">
<path d="M 497.171875 86.429688 C 506.734375 76.867188 512 64.152344 512 50.628906 C 512 37.105469 506.734375 24.390625 497.171875 14.828125 C 487.609375 5.265625 474.894531 0 461.371094 0 C 447.847656 0 435.132812 5.265625 425.570312 14.828125 L 198.296875 242.105469 L 269.894531 313.703125 Z M 497.171875 86.429688 " style=" stroke:none;fill-rule:nonzero;fill:rgb(0%,0%,0%);fill-opacity:1;" />
<path d="M 65.839844 506.65625 C 92.171875 507.21875 130.371094 496.695312 162.925781 459.074219 C 164.984375 456.691406 166.894531 454.285156 168.664062 451.855469 C 179.460938 435.875 184.695312 418.210938 183.855469 400.152344 C 182.945312 380.5625 174.992188 362.324219 161.460938 348.796875 C 150.28125 337.613281 134.722656 331.457031 117.648438 331.457031 C 95.800781 331.457031 73.429688 341.296875 56.277344 358.449219 C 31.574219 383.152344 31.789062 404.234375 31.976562 422.839844 C 32.15625 440.921875 32.316406 456.539062 11.101562 480.644531 L 0 493.257812 C 0 493.257812 26.828125 505.820312 65.839844 506.65625 Z M 65.839844 506.65625 " style=" stroke:none;fill-rule:nonzero;fill:rgb(0%,0%,0%);fill-opacity:1;" />
<path d="M 209.980469 373.621094 L 248.496094 335.101562 L 176.894531 263.503906 L 137.238281 303.160156 C 154.691406 306.710938 170.464844 315 182.859375 327.394531 C 195.746094 340.285156 205.003906 356.1875 209.980469 373.621094 Z M 209.980469 373.621094 " style=" stroke:none;fill-rule:nonzero;fill:rgb(0%,0%,0%);fill-opacity:1;" />
</g>
</svg>