<svg version="1.1" id="Capa_1" xmlns="http://www.w3.org/2000/svg" xmlns:xlink="http://www.w3.org/1999/xlink" x="0px" y="0px"
	 viewBox="0 0 512 512" style="enable-background:new 0 0 512 512;" xml:space="preserve">
<g>
	<g>
		<g>
			<path d="M42.667,256c0-59.52,35.093-110.827,85.547-134.827V75.2C53.653,101.44,0,172.48,0,256s53.653,154.56,128.213,180.8
				v-45.973C77.76,366.827,42.667,315.52,42.667,256z"/>
			<path d="M320,64c-105.92,0-192,86.08-192,192s86.08,192,192,192s192-86.08,192-192S425.92,64,320,64z M320,405.333
				c-82.347,0-149.333-66.987-149.333-149.333S237.653,106.667,320,106.667S469.333,173.653,469.333,256
				S402.347,405.333,320,405.333z"/>
			<polygon points="341.333,170.667 298.667,170.667 298.667,234.667 234.667,234.667 234.667,277.333 298.667,277.333
				298.667,341.333 341.333,341.333 341.333,277.333 405.333,277.333 405.333,234.667 341.333,234.667 			"/>
		</g>
	</g>
</g>
</svg>
