<svg version="1.1" id="Capa_1" xmlns="http://www.w3.org/2000/svg" xmlns:xlink="http://www.w3.org/1999/xlink" x="0px" y="0px"
	 viewBox="0 0 512 512" xml:space="preserve">
		<path d="M248.257,256l103.986-103.758c2.777-2.771,4.337-6.532,4.337-10.455c0-3.923-1.561-7.684-4.337-10.455l-49.057-48.948
			c-5.765-5.753-15.098-5.753-20.863,0L178.29,186.188L74.258,82.384c-5.764-5.751-15.098-5.752-20.863,0L4.337,131.333
			C1.561,134.103,0,137.865,0,141.788c0,3.923,1.561,7.684,4.337,10.455L108.324,256L4.337,359.758
			C1.561,362.528,0,366.29,0,370.212c0,3.923,1.561,7.684,4.337,10.455l49.057,48.948c5.765,5.753,15.098,5.753,20.863,0
			l104.033-103.804l104.032,103.804c2.883,2.876,6.657,4.315,10.432,4.315s7.549-1.438,10.432-4.315l49.056-48.948
			c2.777-2.771,4.337-6.532,4.337-10.455c0-3.923-1.561-7.684-4.337-10.455L248.257,256z"/>

		<path d="M497.231,384.331h-44.973l35.508-31.887c14.878-13.36,20.056-34.18,13.192-53.04
			c-6.874-18.89-23.565-31.044-43.561-31.717c-0.639-0.021-1.283-0.032-1.928-0.032c-31.171,0-56.531,25.318-56.531,56.439
			c0,8.157,6.613,14.769,14.769,14.769c8.156,0,14.769-6.613,14.769-14.769c0-14.833,12.109-26.901,26.992-26.901
			c0.316,0,0.631,0.005,0.937,0.016c11.573,0.39,15.78,9.511,16.795,12.297c2.163,5.946,1.942,14.574-5.171,20.962l-64.19,57.643
			c-4.552,4.088-6.112,10.56-3.923,16.273c2.189,5.714,7.673,9.486,13.792,9.486h83.523c8.157,0,14.769-6.613,14.769-14.769
			S505.387,384.331,497.231,384.331z"/>
</svg>
