<svg version="1.1" viewBox="-10 -10 150 150" fill="none" stroke="none" stroke-linecap="square" stroke-miterlimit="10" xmlns:xlink="http://www.w3.org/1999/xlink" xmlns="http://www.w3.org/2000/svg"><path stroke="#000000" stroke-width="8" stroke-linejoin="round" stroke-linecap="butt" d="m0 59.82677l33.496998 -3.4664993l-31.45845 -12.017807l33.252647 5.321434l-27.275928 -19.750513l30.742428 13.746485l-21.234838 -26.137014l26.137014 21.234838l-13.746485 -30.742428l19.750513 27.275928l-5.321434 -33.252647l12.017807 31.45845l3.4664993 -33.496998l3.4664993 33.496998l12.017811 -31.45845l-5.321434 33.252647l19.750511 -27.275928l-13.746483 30.742428l26.137009 -21.234838l-21.234833 26.137014l30.742424 -13.746485l-27.275925 19.750513l33.252647 -5.321434l-31.45845 12.017807l33.496994 3.4664993l-33.496994 3.4664993l31.45845 12.017811l-33.252647 -5.321434l27.275925 19.750511l-30.742424 -13.746483l21.234833 26.137009l-26.137009 -21.234833l13.746483 30.742424l-19.750511 -27.275925l5.321434 33.252647l-12.017811 -31.45845l-3.4664993 33.496994l-3.4664993 -33.496994l-12.017807 31.45845l5.321434 -33.252647l-19.750513 27.275925l13.746485 -30.742424l-26.137014 21.234833l21.234838 -26.137009l-30.742428 13.746483l27.275928 -19.750511l-33.252647 5.321434l31.45845 -12.017811z" fill-rule="evenodd"/></svg>