<svg version="1.1" viewBox="-10 -10 150 150" fill="none" stroke="none" stroke-linecap="square" stroke-miterlimit="10" xmlns:xlink="http://www.w3.org/1999/xlink" xmlns="http://www.w3.org/2000/svg"><path stroke="#000000" stroke-width="8" stroke-linejoin="round" stroke-linecap="butt" d="m0 59.82677l9.952638 -6.5662766l-7.91409 -8.91803l11.312678 -3.7663116l-5.3359585 -10.662767l11.902236 -0.7101288l-2.3946476 -11.680401l11.680401 2.3946476l0.7101288 -11.902236l10.662767 5.3359585l3.7663116 -11.312678l8.91803 7.91409l6.5662766 -9.952638l6.5662804 9.952638l8.91803 -7.91409l3.7663116 11.312678l10.6627655 -5.3359585l0.7101288 11.902236l11.680397 -2.3946476l-2.3946457 11.680401l11.902237 0.7101288l-5.3359604 10.662767l11.312683 3.7663116l-7.914093 8.91803l9.952637 6.5662766l-9.952637 6.5662804l7.914093 8.91803l-11.312683 3.7663116l5.3359604 10.6627655l-11.902237 0.7101288l2.3946457 11.680397l-11.680397 -2.3946457l-0.7101288 11.902237l-10.6627655 -5.3359604l-3.7663116 11.312683l-8.91803 -7.914093l-6.5662804 9.952637l-6.5662766 -9.952637l-8.91803 7.914093l-3.7663116 -11.312683l-10.662767 5.3359604l-0.7101288 -11.902237l-11.680401 2.3946457l2.3946476 -11.680397l-11.902236 -0.7101288l5.3359585 -10.6627655l-11.312678 -3.7663116l7.91409 -8.91803z" fill-rule="evenodd"/></svg>